<mxfile host="drawio-plugin" modified="2022-10-04T07:01:46.786Z" agent="5.0 (Windows NT 6.2; Win64; x64) AppleWebKit/537.36 (KHTML, like Gecko) Chrome/97.0.4692.45 Safari/537.36" etag="79A-9CTX93jfxIHj_LWO" version="15.5.4" type="embed"><diagram id="a17Q6D_ytqDnzrPV57ui" name="Page-1"><mxGraphModel dx="2039" dy="1103" grid="1" gridSize="10" guides="1" tooltips="1" connect="1" arrows="1" fold="1" page="1" pageScale="1" pageWidth="850" pageHeight="1100" math="0" shadow="0"><root><mxCell id="0"/><mxCell id="1" parent="0"/><mxCell id="FUIx80UpsDMmiJj-J6sy-10" style="edgeStyle=orthogonalEdgeStyle;rounded=0;orthogonalLoop=1;jettySize=auto;html=1;exitX=1;exitY=0.5;exitDx=0;exitDy=0;fontSize=12;startArrow=classic;startFill=1;fillColor=#dae8fc;strokeColor=#6c8ebf;strokeWidth=2;" parent="1" source="FUIx80UpsDMmiJj-J6sy-1" target="FUIx80UpsDMmiJj-J6sy-9" edge="1"><mxGeometry relative="1" as="geometry"/></mxCell><mxCell id="FUIx80UpsDMmiJj-J6sy-15" value="Tell to deploy models&lt;br&gt;Use models (MQTT)" style="edgeLabel;html=1;align=center;verticalAlign=middle;resizable=0;points=[];fontSize=12;" parent="FUIx80UpsDMmiJj-J6sy-10" vertex="1" connectable="0"><mxGeometry x="0.2909" y="2" relative="1" as="geometry"><mxPoint x="-21" y="-18" as="offset"/></mxGeometry></mxCell><mxCell id="FUIx80UpsDMmiJj-J6sy-1" value="Simulation&lt;br&gt;Orchestrator" style="rounded=1;whiteSpace=wrap;html=1;" parent="1" vertex="1"><mxGeometry x="70" y="270" width="120" height="60" as="geometry"/></mxCell><mxCell id="FUIx80UpsDMmiJj-J6sy-2" value="Model 1" style="rounded=1;whiteSpace=wrap;html=1;" parent="1" vertex="1"><mxGeometry x="200" y="450" width="120" height="60" as="geometry"/></mxCell><mxCell id="FUIx80UpsDMmiJj-J6sy-3" value="Model 2" style="rounded=1;whiteSpace=wrap;html=1;" parent="1" vertex="1"><mxGeometry x="330" y="450" width="120" height="60" as="geometry"/></mxCell><mxCell id="FUIx80UpsDMmiJj-J6sy-4" value="Model n" style="rounded=1;whiteSpace=wrap;html=1;" parent="1" vertex="1"><mxGeometry x="525" y="450" width="120" height="60" as="geometry"/></mxCell><mxCell id="FUIx80UpsDMmiJj-J6sy-5" value="&lt;b&gt;&lt;font style=&quot;font-size: 48px&quot;&gt;...&lt;/font&gt;&lt;/b&gt;" style="text;html=1;strokeColor=none;fillColor=none;align=center;verticalAlign=middle;whiteSpace=wrap;rounded=0;" parent="1" vertex="1"><mxGeometry x="460" y="460" width="60" height="30" as="geometry"/></mxCell><mxCell id="FUIx80UpsDMmiJj-J6sy-17" style="edgeStyle=orthogonalEdgeStyle;rounded=0;orthogonalLoop=1;jettySize=auto;html=1;exitX=0.5;exitY=1;exitDx=0;exitDy=0;entryX=0.5;entryY=0;entryDx=0;entryDy=0;fontSize=12;startArrow=none;startFill=0;fillColor=#f8cecc;strokeColor=#b85450;strokeWidth=2;" parent="1" source="FUIx80UpsDMmiJj-J6sy-7" target="FUIx80UpsDMmiJj-J6sy-8" edge="1"><mxGeometry relative="1" as="geometry"/></mxCell><mxCell id="FUIx80UpsDMmiJj-J6sy-18" value="Use to administer containers&lt;br&gt;for models (backplane-specific)" style="edgeLabel;html=1;align=center;verticalAlign=middle;resizable=0;points=[];fontSize=12;" parent="FUIx80UpsDMmiJj-J6sy-17" vertex="1" connectable="0"><mxGeometry x="0.4667" y="1" relative="1" as="geometry"><mxPoint x="-91" y="-9" as="offset"/></mxGeometry></mxCell><mxCell id="FUIx80UpsDMmiJj-J6sy-7" value="&lt;font style=&quot;font-size: 12px&quot;&gt;Model Services Orchestrator&lt;br style=&quot;font-size: 12px;&quot;&gt;&lt;/font&gt;" style="rounded=1;whiteSpace=wrap;html=1;fontSize=12;" parent="1" vertex="1"><mxGeometry x="670" y="270" width="120" height="60" as="geometry"/></mxCell><mxCell id="FUIx80UpsDMmiJj-J6sy-19" style="edgeStyle=orthogonalEdgeStyle;rounded=0;orthogonalLoop=1;jettySize=auto;html=1;exitX=0.5;exitY=1;exitDx=0;exitDy=0;entryX=0.5;entryY=1;entryDx=0;entryDy=0;fontSize=12;startArrow=none;startFill=0;fillColor=#f8cecc;strokeColor=#b85450;strokeWidth=2;" parent="1" source="FUIx80UpsDMmiJj-J6sy-8" target="FUIx80UpsDMmiJj-J6sy-4" edge="1"><mxGeometry relative="1" as="geometry"/></mxCell><mxCell id="FUIx80UpsDMmiJj-J6sy-20" value="Deploy, stop, remove container (backplane-specific)" style="edgeLabel;html=1;align=center;verticalAlign=middle;resizable=0;points=[];fontSize=12;" parent="FUIx80UpsDMmiJj-J6sy-19" vertex="1" connectable="0"><mxGeometry x="-0.0566" relative="1" as="geometry"><mxPoint x="-195" y="20" as="offset"/></mxGeometry></mxCell><mxCell id="FUIx80UpsDMmiJj-J6sy-21" style="edgeStyle=orthogonalEdgeStyle;rounded=0;orthogonalLoop=1;jettySize=auto;html=1;exitX=0.5;exitY=1;exitDx=0;exitDy=0;entryX=0.5;entryY=1;entryDx=0;entryDy=0;fontSize=12;startArrow=none;startFill=0;fillColor=#f8cecc;strokeColor=#b85450;strokeWidth=2;" parent="1" source="FUIx80UpsDMmiJj-J6sy-8" target="FUIx80UpsDMmiJj-J6sy-3" edge="1"><mxGeometry relative="1" as="geometry"/></mxCell><mxCell id="FUIx80UpsDMmiJj-J6sy-22" style="edgeStyle=orthogonalEdgeStyle;rounded=0;orthogonalLoop=1;jettySize=auto;html=1;exitX=0.5;exitY=1;exitDx=0;exitDy=0;entryX=0.5;entryY=1;entryDx=0;entryDy=0;fontSize=12;startArrow=none;startFill=0;fillColor=#f8cecc;strokeColor=#b85450;strokeWidth=2;" parent="1" source="FUIx80UpsDMmiJj-J6sy-8" target="FUIx80UpsDMmiJj-J6sy-2" edge="1"><mxGeometry relative="1" as="geometry"/></mxCell><mxCell id="FUIx80UpsDMmiJj-J6sy-8" value="Deployment backplane" style="rounded=1;whiteSpace=wrap;html=1;fontSize=12;" parent="1" vertex="1"><mxGeometry x="670" y="370" width="120" height="60" as="geometry"/></mxCell><mxCell id="FUIx80UpsDMmiJj-J6sy-11" style="edgeStyle=orthogonalEdgeStyle;rounded=0;orthogonalLoop=1;jettySize=auto;html=1;exitX=1;exitY=0.5;exitDx=0;exitDy=0;entryX=0;entryY=0.5;entryDx=0;entryDy=0;fontSize=12;startArrow=classic;startFill=1;fillColor=#dae8fc;strokeColor=#6c8ebf;strokeWidth=2;" parent="1" source="FUIx80UpsDMmiJj-J6sy-9" target="FUIx80UpsDMmiJj-J6sy-7" edge="1"><mxGeometry relative="1" as="geometry"/></mxCell><mxCell id="FUIx80UpsDMmiJj-J6sy-16" value="Share state changes&lt;br&gt;for models (MQTT)" style="edgeLabel;html=1;align=center;verticalAlign=middle;resizable=0;points=[];fontSize=12;" parent="FUIx80UpsDMmiJj-J6sy-11" vertex="1" connectable="0"><mxGeometry x="-0.2" y="1" relative="1" as="geometry"><mxPoint x="13" y="-19" as="offset"/></mxGeometry></mxCell><mxCell id="FUIx80UpsDMmiJj-J6sy-12" style="edgeStyle=orthogonalEdgeStyle;rounded=0;orthogonalLoop=1;jettySize=auto;html=1;exitX=0.5;exitY=1;exitDx=0;exitDy=0;entryX=0.5;entryY=0;entryDx=0;entryDy=0;fontSize=12;startArrow=classic;startFill=1;fillColor=#dae8fc;strokeColor=#6c8ebf;strokeWidth=2;" parent="1" source="FUIx80UpsDMmiJj-J6sy-9" target="FUIx80UpsDMmiJj-J6sy-2" edge="1"><mxGeometry relative="1" as="geometry"/></mxCell><mxCell id="FUIx80UpsDMmiJj-J6sy-23" value="bid &amp;amp; calculate effects" style="edgeLabel;html=1;align=center;verticalAlign=middle;resizable=0;points=[];fontSize=12;" parent="FUIx80UpsDMmiJj-J6sy-12" vertex="1" connectable="0"><mxGeometry x="0.208" y="-3" relative="1" as="geometry"><mxPoint x="21" y="-7" as="offset"/></mxGeometry></mxCell><mxCell id="FUIx80UpsDMmiJj-J6sy-13" style="edgeStyle=orthogonalEdgeStyle;rounded=0;orthogonalLoop=1;jettySize=auto;html=1;exitX=0.5;exitY=1;exitDx=0;exitDy=0;entryX=0.5;entryY=0;entryDx=0;entryDy=0;fontSize=12;startArrow=classic;startFill=1;fillColor=#dae8fc;strokeColor=#6c8ebf;strokeWidth=2;" parent="1" source="FUIx80UpsDMmiJj-J6sy-9" target="FUIx80UpsDMmiJj-J6sy-3" edge="1"><mxGeometry relative="1" as="geometry"/></mxCell><mxCell id="FUIx80UpsDMmiJj-J6sy-14" style="edgeStyle=orthogonalEdgeStyle;rounded=0;orthogonalLoop=1;jettySize=auto;html=1;exitX=0.5;exitY=1;exitDx=0;exitDy=0;entryX=0.5;entryY=0;entryDx=0;entryDy=0;fontSize=12;startArrow=classic;startFill=1;fillColor=#dae8fc;strokeColor=#6c8ebf;strokeWidth=2;" parent="1" source="FUIx80UpsDMmiJj-J6sy-9" target="FUIx80UpsDMmiJj-J6sy-4" edge="1"><mxGeometry relative="1" as="geometry"/></mxCell><mxCell id="FUIx80UpsDMmiJj-J6sy-9" value="MQTT Broker" style="rounded=1;whiteSpace=wrap;html=1;" parent="1" vertex="1"><mxGeometry x="330" y="270" width="120" height="60" as="geometry"/></mxCell><mxCell id="FUIx80UpsDMmiJj-J6sy-25" value="" style="endArrow=classic;html=1;rounded=0;fontSize=12;entryX=0.5;entryY=0;entryDx=0;entryDy=0;fillColor=#d5e8d4;strokeColor=#82b366;strokeWidth=2;" parent="1" target="FUIx80UpsDMmiJj-J6sy-1" edge="1"><mxGeometry width="50" height="50" relative="1" as="geometry"><mxPoint x="130" y="150" as="sourcePoint"/><mxPoint x="90" y="110" as="targetPoint"/></mxGeometry></mxCell><mxCell id="FUIx80UpsDMmiJj-J6sy-26" value="Start simulation (REST)" style="edgeLabel;html=1;align=center;verticalAlign=middle;resizable=0;points=[];fontSize=12;" parent="FUIx80UpsDMmiJj-J6sy-25" vertex="1" connectable="0"><mxGeometry x="0.3" y="-1" relative="1" as="geometry"><mxPoint x="71" y="-18" as="offset"/></mxGeometry></mxCell></root></mxGraphModel></diagram></mxfile>